<?xml version="1.0" standalone="no"?>
<!DOCTYPE svg PUBLIC "-//W3C//DTD SVG 20010904//EN"
 "http://www.w3.org/TR/2001/REC-SVG-20010904/DTD/svg10.dtd">
<svg version="1.0" xmlns="http://www.w3.org/2000/svg"
 width="128.000000pt" height="128.000000pt" viewBox="0 0 128.000000 128.000000"
 preserveAspectRatio="xMidYMid meet">
<metadata>
Created by potrace 1.15, written by Peter Selinger 2001-2017
</metadata>
<g transform="translate(0.000000,128.000000) scale(0.100000,-0.100000)"
fill="#000000" stroke="none">
<path d="M1115 1254 c-61 -13 -153 -36 -205 -51 l-95 -28 -129 -180 -130 -180
3 -85 c3 -117 20 -133 51 -48 13 35 32 73 44 85 18 19 154 78 162 71 6 -7 -70
-146 -94 -172 -15 -15 -47 -37 -72 -48 l-45 -21 50 -13 c62 -17 114 -17 140
-1 62 37 365 270 369 285 3 9 26 98 51 197 25 99 48 188 51 198 7 23 -12 22
-151 -9z"/>
<path d="M485 1130 c-133 -42 -219 -119 -249 -223 -18 -62 -70 -127 -131 -163
-65 -37 -85 -86 -85 -205 0 -52 -5 -112 -10 -134 -5 -22 -7 -41 -6 -43 9 -8
118 105 169 176 63 87 171 293 201 381 25 76 100 152 190 196 l71 34 -45 0
c-25 0 -72 -9 -105 -19z"/>
<path d="M984 687 c-38 -30 -101 -76 -139 -104 l-71 -50 -119 14 -119 13 -44
-43 -43 -43 123 -17 c192 -27 199 -26 309 39 l96 56 42 91 c22 50 39 92 37 94
-2 2 -34 -21 -72 -50z"/>
<path d="M1122 642 c-50 -122 -98 -171 -216 -216 -96 -38 -184 -88 -246 -143
-19 -17 -58 -42 -86 -56 -28 -14 -77 -54 -112 -91 -52 -57 -90 -106 -80 -106
2 0 19 5 38 10 19 6 83 15 142 20 59 5 120 16 136 24 34 17 75 64 99 110 26
53 53 74 119 96 80 27 144 83 183 161 34 68 64 190 59 239 -3 31 -6 27 -36
-48z"/>
<path d="M200 340 l0 -120 98 0 c99 0 142 6 142 20 0 4 -34 11 -75 15 -71 6
-75 8 -75 31 0 19 -5 24 -24 24 -25 0 -36 28 -36 90 0 34 -9 60 -21 60 -5 0
-9 -54 -9 -120z"/>
<path d="M382 404 c-12 -8 -26 -23 -32 -33 -9 -17 0 -19 121 -31 l130 -13 30
29 c16 15 29 31 29 34 0 5 -199 30 -241 30 -8 0 -25 -7 -37 -16z"/>
<path d="M53 240 c-19 -29 -23 -49 -23 -112 l0 -78 83 0 c69 0 87 3 100 18 10
10 17 22 17 25 0 4 -34 7 -75 7 l-74 0 -3 88 -3 87 -22 -35z"/>
</g>
</svg>
